<svg width="83" height="107" viewBox="0 0 83 107" fill="none" xmlns="http://www.w3.org/2000/svg">
<g clip-path="url(#clip0_518_105)">
<path d="M33.3036 45.8384C30.1144 49.7099 24.5419 57.633 26.5947 61.1508C28.6297 64.6284 31.6894 63.922 31.6894 63.922C31.6894 63.922 26.8586 70.5332 29.7258 74.8263C33.2685 80.1338 38.3433 77.4416 38.3433 77.4416C38.3433 77.4416 36.0418 82.7069 41.596 85.8462C46.0915 88.3877 52.3314 83.0854 52.3314 83.0854C52.3314 83.0854 51.8498 86.1933 55.475 87.9601C59.1349 89.7461 66.6167 83.6062 70.2396 80.1392C74.2381 76.3116 120.416 27.8477 120.416 27.8477L80.7357 -8.98898C80.7357 -8.98898 36.8236 41.5672 33.3036 45.8384Z" fill="#DEB180"/>
<path d="M48.7566 64.9335C54.61 70.366 64.147 70.903 63.9266 64.9629C63.7062 59.0229 58.1716 61.3416 54.7521 58.1658C51.525 55.1563 52.8237 50.3538 48.3384 49.6306C43.8531 48.9074 42.126 58.7763 48.7566 64.9335Z" fill="#2D2B2C"/>
<path d="M57.0815 84.6219C58.7954 85.957 60.7769 84.6112 62.1912 82.6995C63.6055 80.7878 63.6829 78.7062 62.4842 77.8095C61.2855 76.9128 58.8964 77.7048 57.2745 79.6387C55.6525 81.5727 55.6883 83.5386 57.0815 84.6219Z" fill="#2D2B2C"/>
<path d="M48.2837 75.7325C47.0836 74.8345 44.6959 75.6278 43.0727 77.5631C41.4495 79.4985 41.4825 81.4645 42.8797 82.5463C44.5936 83.8814 46.5752 82.5356 47.9907 80.6225C49.4063 78.7094 49.4824 76.6292 48.2837 75.7325Z" fill="#2D2B2C"/>
<path d="M38.6974 66.8319C37.4987 65.9352 35.1083 66.7286 33.4878 68.6638C31.8673 70.5991 31.8976 72.5652 33.2948 73.647C35.0073 74.9807 36.9903 73.6363 38.4045 71.7246C39.8188 69.8129 39.8948 67.73 38.6974 66.8319Z" fill="#2D2B2C"/>
<path d="M30.8286 55.0832C29.211 57.0238 29.2384 58.9846 30.6356 60.0664C32.3481 61.4001 34.3311 60.0557 35.7467 58.1426C37.1623 56.2295 37.2369 54.148 36.0383 53.2513C34.8396 52.3546 32.4434 53.14 30.8286 55.0832Z" fill="#2D2B2C"/>
<g opacity="0.2">
<path opacity="0.2" d="M54.6599 66.3418C58.5407 67.7019 61.5442 66.7509 61.4785 64.9809C61.4128 63.2108 57.3872 64.6962 55.217 63.4411C53.1801 62.2604 50.296 59.9051 49.3501 60.558C47.7656 61.6501 50.4702 64.8727 54.6599 66.3418Z" fill="white"/>
<path opacity="0.2" d="M58.1737 83.4201C58.859 84.1277 59.9603 83.2432 60.6541 82.5896C61.2292 82.0491 61.9772 81.1906 61.5119 80.6197C61.0465 80.0488 60.1462 80.8364 59.4964 81.2283C58.8466 81.6202 57.6154 82.8416 58.1737 83.4201Z" fill="white"/>
<path opacity="0.2" d="M46.967 78.8755C46.5016 78.3019 45.6014 79.0922 44.9503 79.4855C44.2992 79.8788 43.0706 81.0974 43.6288 81.6759C44.3128 82.3849 45.4154 81.499 46.1092 80.8454C46.687 80.3021 47.4337 79.445 46.967 78.8755Z" fill="white"/>
<path opacity="0.2" d="M34.1014 72.6094C34.7854 73.3184 35.888 72.4325 36.5818 71.7789C37.1556 71.2398 37.9063 70.3812 37.4382 69.8104C36.9702 69.2396 36.0739 70.0257 35.4228 70.419C34.7717 70.8123 33.5418 72.0323 34.1014 72.6094Z" fill="white"/>
<path opacity="0.2" d="M31.2605 58.7193C31.9446 59.4283 33.0471 58.5424 33.7409 57.8887C34.3148 57.3496 35.0655 56.491 34.5987 55.9189C34.132 55.3467 33.2331 56.1355 32.582 56.5288C31.9309 56.9221 30.701 58.1422 31.2605 58.7193Z" fill="white"/>
</g>
<path d="M83.5732 -1.30863C81.8264 -2.95095 79.9735 -4.47665 78.0265 -5.87585C76.0711 -3.62099 73.1843 -0.296892 69.8012 3.60176C76.1106 9.25665 84.4748 14.7321 86.3755 15.8358C94.4843 20.5491 103.523 23.6646 110.473 30.1226C111.71 31.2768 113.081 32.6361 114.409 34.1413C116.433 32.0189 118.053 30.3194 119.099 29.2229C117.218 28.2139 115.323 27.1712 113.465 25.9856C105.648 21.002 99.3786 13.3758 92.5871 7.05797L83.5732 -1.30863Z" fill="#2D2B2C"/>
<path d="M60.1179 14.771C61.5309 18.303 64.9055 20.8156 67.9514 23.3928C78.0617 31.9894 89.7418 40.6755 98.3536 50.9552C100.771 48.4281 103.143 45.9435 105.396 43.5842C103.005 41.2566 101.112 39.1785 100.476 38.4692C91.4938 28.6234 81.0552 10.7925 66.7659 7.10315C64.6377 9.5575 62.398 12.1397 60.1179 14.771Z" fill="#2D2B2C"/>
<path d="M50.9985 25.2948C47.9812 28.7815 45.0961 32.1151 42.5531 35.0594C44.3871 37.9246 46.5042 40.5985 48.8725 43.0407C54.7879 49.118 61.5719 54.2387 68.3919 59.2218C72.7742 62.4266 77.5882 65.0046 82.2769 67.7368C84.7157 65.2008 87.3724 62.4283 90.1145 59.5669C80.4332 51.789 71.9909 42.2703 62.5153 34.2604C61.1732 33.1167 56.1195 28.7434 50.9985 25.2948Z" fill="#2D2B2C"/>
</g>
<defs>
<clipPath id="clip0_518_105">
<rect width="54.1412" height="96.4698" fill="white" transform="translate(54.624 98.3906) rotate(-136.998)"/>
</clipPath>
</defs>
</svg>
