<svg width="85" height="101" viewBox="0 0 85 101" fill="none" xmlns="http://www.w3.org/2000/svg">
<g clip-path="url(#clip0_518_164)">
<path d="M8.14966 67.347C8.14966 67.347 1.83757 71.5668 2.43859 72.9359C3.18204 74.6325 10.4671 71.4254 10.4671 71.4254L8.14966 67.347Z" fill="#2D2B2C"/>
<path d="M20.8138 84.835C20.8138 84.835 16.8035 91.2814 17.9157 92.2815C19.2923 93.5195 24.6072 87.5925 24.6072 87.5925L20.8138 84.835Z" fill="#2D2B2C"/>
<path d="M69.0987 76.2844C69.0987 76.2844 73.976 82.1038 73.0166 83.249C71.829 84.6599 65.733 79.5501 65.733 79.5501L69.0987 76.2844Z" fill="#2D2B2C"/>
<path d="M52.0443 89.5249C52.0443 89.5249 54.0874 96.8359 52.7409 97.4733C51.0618 98.2761 47.6312 91.0904 47.6312 91.0904L52.0443 89.5249Z" fill="#2D2B2C"/>
<path d="M6.53972 66.2818C8.03099 78.4177 19.4623 75.3057 19.4623 75.3057C19.4623 75.3057 15.0136 86.0131 23.1393 89.0144C29.6715 91.426 35.2413 87.4832 36.3751 86.122C36.9695 87.6277 42.0692 93.589 49.1537 92.2793C57.833 90.6758 55.7506 80.7852 55.7506 80.7852C55.7506 80.7852 65.8031 87.0485 70.713 75.8476C74.6529 66.8625 61.0409 63.4952 61.1285 59.2008C61.2161 54.9063 75.2879 0.897104 75.2879 0.897104L23.6699 -6.83009C23.6699 -6.83009 21.6541 48.9485 20.5076 53.0866C19.361 57.2246 5.34419 56.5421 6.53972 66.2818Z" fill="#FDBF12"/>
<path d="M38.1175 72.6466C45.7085 73.8891 53.6492 69.2407 50.3091 64.5905C46.9689 59.9404 44.8275 57.7766 40.3911 57.0513C36.1951 56.3643 33.6172 58.7819 29.6288 60.5911C25.6404 62.4004 29.5281 71.2362 38.1175 72.6466Z" fill="#2D2B2C"/>
<path d="M61.2162 76.3753C63.0485 77.977 64.9372 77.9938 66.0104 76.6735C67.3309 75.0488 66.0976 73.1115 64.2737 71.7092C62.4499 70.3069 60.4635 70.1846 59.5706 71.3172C58.6778 72.4497 59.3836 74.7755 61.2162 76.3753Z" fill="#2D2B2C"/>
<path d="M44.7144 80.1787C43.4455 80.8521 43.1328 83.2606 44.1529 85.4697C45.1729 87.6787 46.8914 88.4639 48.4086 87.6963C50.2756 86.752 49.9323 84.475 48.8477 82.4537C47.7632 80.4323 45.9908 79.5082 44.7144 80.1787Z" fill="#2D2B2C"/>
<path d="M11.8489 68.3108C12.6014 69.8378 14.4472 70.2318 16.5884 69.0887C18.7296 67.9457 19.9357 65.8284 19.3182 64.5238C18.7006 63.2192 16.7277 62.8945 14.6461 63.8571C12.5646 64.8197 10.924 66.4308 11.8489 68.3108Z" fill="#2D2B2C"/>
<path d="M25.695 84.3262C27.0035 85.4137 28.8541 85.0287 30.3389 83.1021C31.8237 81.1755 32.0648 78.7593 30.9699 77.8205C29.875 76.8816 27.939 77.3906 26.4319 79.1178C24.9249 80.845 24.0844 82.988 25.695 84.3262Z" fill="#2D2B2C"/>
<path d="M53.6614 33.4553C47.9306 34.2777 48.2035 43.2432 50.2478 46.8862C52.1465 50.2838 57.9801 52.837 62.4761 52.2016C63.5995 47.2003 65.3291 40.0893 67.1615 32.7408C65.2625 33.7181 63.3175 34.7757 61.2823 35.0297C58.5449 35.3797 56.1584 33.0965 53.6614 33.4553Z" fill="#2D2B2C"/>
<path d="M21.9709 32.966C27.4573 33.5637 32.0503 33.0238 37.1288 29.6531C42.3948 26.1583 47.4331 22.7939 53.1731 20.1092C57.4202 18.1286 59.4747 16.0843 60.2251 11.4903C60.824 7.80276 61.3059 3.01552 60.6004 -1.29545L23.6667 -6.82263C23.6667 -6.82263 22.8555 15.5105 21.9709 32.966Z" fill="#2D2B2C"/>
<g opacity="0.33">
<path opacity="0.33" d="M43.6452 71.1194C47.4842 70.1422 49.3981 67.7707 48.3917 66.3941C47.3852 65.0175 44.9554 68.3465 42.5459 68.4932C40.2828 68.6321 36.7139 68.275 36.3002 69.3052C35.6107 71.0267 39.4997 72.1711 43.6452 71.1194Z" fill="#DEB180"/>
<path opacity="0.33" d="M65.5627 75.745C66.2888 75.1359 65.5056 74.0113 64.9294 73.3034C64.4489 72.7163 63.6754 71.9425 63.0943 72.3492C62.5133 72.756 63.2101 73.6766 63.5447 74.3264C63.8793 74.9763 64.9711 76.2446 65.5627 75.745Z" fill="#DEB180"/>
<path opacity="0.33" d="M47.9707 87.0005C48.9001 86.8214 48.7675 85.4584 48.6016 84.5623C48.4665 83.8156 48.1686 82.7622 47.4594 82.8375C46.7502 82.9128 46.9167 84.0525 46.8926 84.7856C46.8684 85.5188 47.2084 87.1492 47.9707 87.0005Z" fill="#DEB180"/>
<path opacity="0.33" d="M26.7063 84.0226C27.3632 84.7001 28.4323 83.8623 29.0986 83.2314C29.651 82.7168 30.3748 81.8914 29.9292 81.3365C29.4836 80.7816 28.6136 81.5402 27.9855 81.9171C27.3574 82.2939 26.1688 83.4651 26.7063 84.0226Z" fill="#DEB180"/>
<path opacity="0.33" d="M12.8882 68.5311C13.3128 69.3738 14.5884 68.8839 15.4076 68.4876C16.0922 68.1577 17.0269 67.5884 16.7665 66.927C16.5061 66.2655 15.4499 66.73 14.7396 66.9013C14.0292 67.0727 12.5452 67.8271 12.8882 68.5311Z" fill="#DEB180"/>
</g>
</g>
<defs>
<clipPath id="clip0_518_164">
<rect width="71.475" height="99.6053" fill="white" transform="translate(70.835 100.029) rotate(-172.328)"/>
</clipPath>
</defs>
</svg>
