<svg width="125" height="181" viewBox="0 0 125 181" fill="none" xmlns="http://www.w3.org/2000/svg">
<g clip-path="url(#clip0_518_122)">
<path d="M60.9958 58.8853C60.9958 58.8853 55.3507 53.2252 54.0698 54.1245C52.4724 55.2393 57.2564 62.1109 57.2564 62.1109L60.9958 58.8853Z" fill="#7A796E"/>
<path d="M45.5426 75.5324C45.5426 75.5324 38.0775 72.7052 37.2736 74.0575C36.2756 75.7326 43.4705 80.0119 43.4705 80.0119L45.5426 75.5324Z" fill="#7A796E"/>
<path d="M64.1977 123.664C64.1977 123.664 59.1914 129.882 57.8155 129.13C56.1078 128.19 60.1472 120.851 60.1472 120.851L64.1977 123.664Z" fill="#7A796E"/>
<path d="M47.0775 108.746C47.0775 108.746 39.9537 112.348 39.0097 111.088C37.8413 109.529 44.5424 104.511 44.5424 104.511L47.0775 108.746Z" fill="#7A796E"/>
<path d="M61.7612 57.0048C49.5482 61.0199 55.0871 72.1866 55.0871 72.1866C55.0871 72.1866 43.1392 69.7757 41.6989 78.7809C40.542 86.0191 45.7427 90.9692 47.3787 91.8627C45.9465 92.7846 40.8377 99.2677 43.6308 106.316C47.0552 114.955 56.8298 110.787 56.8298 110.787C56.8298 110.787 52.4213 122.454 64.9683 125.236C75.0386 127.474 75.7389 112.726 80.1842 111.94C84.6295 111.153 143.206 114.674 143.206 114.674L140.656 59.78C140.656 59.78 82.724 69.0722 78.2222 68.7295C73.7204 68.3869 71.5688 53.7833 61.7612 57.0048Z" fill="#FCF0E3"/>
<path d="M61.6421 90.9249C61.9074 99.0207 68.3204 106.274 72.4347 101.875C76.5491 97.4746 70.937 95.1432 70.7818 90.4066C70.6352 85.9334 75.0246 83.4442 72.3454 79.6926C69.6662 75.941 61.3416 81.7561 61.6421 90.9249Z" fill="#1A1A1A"/>
<path d="M62.4984 115.541C61.2217 117.758 61.588 119.713 63.1696 120.553C65.1124 121.585 66.8532 119.907 67.9348 117.747C69.0164 115.587 68.7315 113.499 67.383 112.809C66.0344 112.119 63.7766 113.313 62.4984 115.541Z" fill="#1A1A1A"/>
<path d="M55.2142 99.2694C54.2609 98.0879 51.7144 98.2651 49.6441 99.7683C47.5739 101.272 47.1128 103.206 48.2139 104.617C49.5675 106.354 51.8473 105.535 53.708 104.004C55.5687 102.472 56.1654 100.451 55.2142 99.2694Z" fill="#1A1A1A"/>
<path d="M60.7575 62.9024C59.3366 63.9899 59.2984 65.9792 60.9231 67.9569C62.5478 69.9347 64.9672 70.7538 66.1853 69.8448C67.4034 68.9358 67.3366 66.8367 65.9213 64.8833C64.506 62.93 62.5055 61.564 60.7575 62.9024Z" fill="#1A1A1A"/>
<path d="M47.0634 80.4664C46.2102 82.041 46.98 83.873 49.2734 85.0145C51.5668 86.156 54.1034 85.9108 54.8478 84.5877C55.5922 83.2646 54.6721 81.3692 52.5855 80.1702C50.4988 78.9711 48.1154 78.5337 47.0634 80.4664Z" fill="#1A1A1A"/>
<path d="M83.6606 107.828C85.1671 107.867 86.6755 107.901 88.1809 107.963C89.3369 108.013 90.6619 107.987 91.7663 108.307C92.3745 108.482 93.0624 108.053 93.2049 107.58C93.3815 107.02 92.9442 106.587 92.3359 106.411C91.1038 106.061 89.617 106.088 88.3242 106.029C86.7502 105.956 85.1717 105.924 83.5968 105.883C82.063 105.846 82.1365 107.79 83.6608 107.834L83.6606 107.828Z" fill="#2D2B2C"/>
<path d="M90.0247 103.597C91.4725 103.389 92.9202 103.179 94.3751 103.009C95.4628 102.879 97.0941 102.677 97.9301 102.783C99.434 102.976 100.019 101.08 98.4998 100.887C97.1937 100.719 95.8345 100.893 94.5328 101.039C93.0019 101.208 91.4825 101.434 89.9609 101.652C89.3205 101.743 88.7856 102.081 88.8048 102.666C88.8204 103.144 89.3824 103.692 90.0249 103.602L90.0247 103.597Z" fill="#2D2B2C"/>
<path d="M86.0026 97.0747C86.9511 96.862 87.8714 96.5643 88.7944 96.288C89.2829 96.1412 89.7754 95.9961 90.2682 95.8609C90.4613 95.8038 90.6721 95.7519 90.8772 95.7042C90.9604 95.6839 91.0456 95.6654 91.1289 95.649C91.4814 95.575 90.9205 95.6559 91.1912 95.647C92.7166 95.5443 92.6587 93.5991 91.1273 93.6962C90.2226 93.7571 89.3339 94.0674 88.4881 94.3178C87.4356 94.6296 86.39 94.9724 85.3101 95.2207C83.8254 95.5525 84.5199 97.4065 86.0026 97.0747Z" fill="#2D2B2C"/>
<path d="M83.4261 86.1627C86.7098 86.1664 89.9625 85.7005 93.2403 85.5814C94.7732 85.5311 94.7092 83.5803 93.1763 83.6306C89.8986 83.7497 86.6459 84.2156 83.3622 84.2119C81.8275 84.2095 81.8971 86.1543 83.4261 86.1627Z" fill="#2D2B2C"/>
<path d="M97.0335 89.9992C99.3003 89.7941 101.613 89.8492 103.837 89.3525C105.319 89.0168 104.625 87.1628 103.142 87.4965C101.141 87.9527 99.0207 87.8679 96.9736 88.0541C95.4572 88.1917 95.5112 90.137 97.0376 90.0049L97.0335 89.9992Z" fill="#2D2B2C"/>
<path d="M99.7039 80.5634C101.123 80.0189 102.775 79.8495 104.317 79.8967C105.859 79.9438 105.774 77.9995 104.253 77.9458C102.273 77.8832 100.301 78.2133 98.4488 78.9172C98.3236 78.9673 98.2116 79.0455 98.1213 79.1457C98.0311 79.246 97.965 79.3657 97.9282 79.4955C97.8914 79.6254 97.8848 79.762 97.909 79.8948C97.9332 80.0276 97.9876 80.1531 98.0678 80.2616C98.4406 80.7493 99.1144 80.7839 99.7036 80.5556L99.7039 80.5634Z" fill="#2D2B2C"/>
<path d="M83.7909 77.9387C85.807 77.5797 87.5193 76.3402 89.604 76.2269C91.1318 76.1417 91.072 74.1966 89.54 74.2761C87.181 74.4042 85.3527 75.6749 83.0962 76.0789C81.5958 76.3468 82.2981 78.2005 83.7907 77.9329L83.7909 77.9387Z" fill="#2D2B2C"/>
<path d="M102.312 72.016C105.14 71.2574 108.114 71.0448 110.986 70.4331C112.475 70.1187 111.776 68.259 110.291 68.5791C107.421 69.1849 104.445 69.4034 101.619 70.16C100.16 70.5516 100.847 72.4078 102.312 72.016Z" fill="#2D2B2C"/>
<path d="M114.804 80.4612C117.071 80.2502 119.324 79.9362 121.608 79.8477C123.139 79.7975 123.077 77.8466 121.544 77.8968C119.264 77.9833 117.01 78.2974 114.74 78.5104C113.224 78.6519 113.276 80.5972 114.804 80.4612Z" fill="#2D2B2C"/>
<path d="M101.875 97.3672C103.885 97.4282 105.892 97.4894 107.904 97.4293C109.437 97.3791 109.374 95.44 107.84 95.4785C105.828 95.5445 103.822 95.4774 101.811 95.4164C100.279 95.3709 100.354 97.3154 101.875 97.3672Z" fill="#2D2B2C"/>
<path d="M99.2336 108.71C101.333 108.923 103.353 109.462 105.452 109.678C106.956 109.824 107.54 107.936 106.022 107.783C103.923 107.571 101.903 107.031 99.8051 106.815C98.299 106.669 97.7174 108.557 99.2336 108.71Z" fill="#2D2B2C"/>
<path d="M108.927 104.412C111.357 104.2 113.788 103.991 116.198 103.655C116.839 103.565 117.374 103.226 117.355 102.64C117.339 102.162 116.777 101.616 116.134 101.704C113.724 102.041 111.293 102.253 108.863 102.462C107.344 102.593 107.398 104.541 108.927 104.412Z" fill="#2D2B2C"/>
<path d="M122.676 107.718C125.557 107.51 128.435 107.705 131.212 106.883C132.655 106.459 131.972 104.601 130.52 105.029C127.951 105.787 125.273 105.58 122.612 105.773C121.089 105.883 121.145 107.828 122.676 107.723L122.676 107.718Z" fill="#2D2B2C"/>
<path d="M118.238 98.1298C120.744 98.0243 123.156 97.4453 125.487 96.6893C126.907 96.2268 126.228 94.3684 124.792 94.8353C122.659 95.5283 120.472 96.0881 118.174 96.1849C116.643 96.2487 116.705 98.1859 118.238 98.1357L118.238 98.1298Z" fill="#2D2B2C"/>
<path d="M110.546 90.9491C112.897 90.5014 115.269 90.1753 117.653 89.9721C119.171 89.8364 119.117 87.8911 117.589 88.0213C114.994 88.2441 112.412 88.6005 109.854 89.0891C108.358 89.3803 109.058 91.2322 110.546 90.9432L110.546 90.9491Z" fill="#2D2B2C"/>
<path d="M121.614 85.0049C123.702 84.3409 126.463 84.2211 128.587 84.7764C130.045 85.1603 130.601 83.2594 129.159 82.8809C126.685 82.2316 123.357 82.3758 120.922 83.1509C119.496 83.6058 120.175 85.4642 121.614 85.0049Z" fill="#2D2B2C"/>
<path d="M125.117 74.3932C125.229 74.3036 124.893 74.5119 125.18 74.3716C125.294 74.323 125.284 74.3233 125.153 74.3725C125.253 74.3341 125.358 74.3014 125.46 74.2707C125.845 74.1556 126.237 74.062 126.632 73.9901C127.604 73.8086 128.584 73.6768 129.569 73.595C130.607 73.4966 131.655 73.4389 132.699 73.4242C133.496 73.4137 133.901 73.3848 134.56 73.5585C136.014 73.9483 136.568 72.0475 135.13 71.6611C134.353 71.4542 133.447 71.478 132.636 71.4831C131.466 71.4922 130.299 71.5753 129.133 71.6897C127.96 71.7963 126.794 71.9649 125.639 72.1948C124.842 72.3596 123.985 72.5868 123.383 73.0713C122.279 73.9589 124.009 75.2751 125.107 74.3819L125.117 74.3932Z" fill="#2D2B2C"/>
<path d="M114.167 74.0981C114.979 73.3059 116.308 72.9792 117.363 72.4584C118.683 71.8077 117.431 70.1673 116.108 70.818C114.858 71.4449 113.412 71.836 112.443 72.7778C111.473 73.7196 113.173 75.068 114.167 74.0981Z" fill="#2D2B2C"/>
<path d="M88.2036 72.248C90.1118 72.1659 91.984 71.7609 93.9002 71.8035C95.4338 71.8353 95.3603 69.8906 93.8362 69.8527C91.9201 69.81 90.0478 70.2151 88.1397 70.2991C86.6093 70.3649 86.6707 72.3002 88.2036 72.2499L88.2036 72.248Z" fill="#2D2B2C"/>
<g opacity="0.26">
<path opacity="0.26" d="M64.5811 96.4082C66.3698 100.175 69.195 101.659 70.4195 100.347C71.6439 99.0357 67.7073 97.1982 67.0632 94.7391C66.4591 92.4291 66.1019 88.6697 64.9542 88.4535C63.0392 88.0925 62.6501 92.3411 64.5811 96.4082Z" fill="#F08641"/>
<path opacity="0.26" d="M64.2743 119.992C65.0532 120.616 66.0527 119.58 66.6602 118.839C67.1684 118.223 67.8098 117.267 67.2702 116.749C66.7307 116.232 65.9182 117.141 65.3235 117.62C64.7289 118.098 63.6394 119.481 64.2743 119.992Z" fill="#F08641"/>
<path opacity="0.26" d="M49.0831 104.114C49.4585 105.039 50.835 104.619 51.7263 104.27C52.4694 103.978 53.4955 103.456 53.2751 102.741C53.0547 102.025 51.9 102.428 51.1514 102.552C50.4028 102.676 48.7756 103.359 49.0831 104.114Z" fill="#F08641"/>
<path opacity="0.26" d="M47.8221 81.5448C47.2503 82.3623 48.349 83.2851 49.1259 83.8456C49.773 84.3126 50.7688 84.8912 51.2493 84.3189C51.7297 83.7466 50.7712 83.0007 50.2533 82.4299C49.7355 81.859 48.2877 80.8773 47.8221 81.5448Z" fill="#F08641"/>
<path opacity="0.26" d="M60.9846 64.1137C60.1954 64.7254 60.9664 65.9402 61.5414 66.7065C62.0206 67.345 62.7971 68.1944 63.4274 67.791C64.0576 67.3876 63.364 66.3909 63.0407 65.6907C62.7175 64.9904 61.6292 63.6141 60.9846 64.1137Z" fill="#F08641"/>
</g>
</g>
<defs>
<clipPath id="clip0_518_122">
<rect width="75.2458" height="104.652" fill="white" transform="translate(38.9941 129.821) rotate(-91.877)"/>
</clipPath>
</defs>
</svg>
